<svg xmlns="http://www.w3.org/2000/svg" xmlns:xlink="http://www.w3.org/1999/xlink" width="1920" zoomAndPan="magnify" viewBox="0 0 1440 540.000001" height="720" preserveAspectRatio="xMidYMid meet" version="1.0"><defs><g/><clipPath id="b7d4dec621"><path d="M 1.332031 36 L 1438.667969 36 L 1438.667969 503 L 1.332031 503 Z M 1.332031 36 " clip-rule="nonzero"/></clipPath><clipPath id="79c4b8f1b7"><path d="M 0.332031 23.113281 L 1437.667969 23.113281 L 1437.667969 444.6875 L 0.332031 444.6875 Z M 0.332031 23.113281 " clip-rule="nonzero"/></clipPath><clipPath id="26367227db"><path d="M 1255.957031 23.113281 C 1356.3125 23.113281 1437.667969 117.488281 1437.667969 233.902344 C 1437.667969 350.316406 1356.3125 444.6875 1255.957031 444.6875 L 182.042969 444.6875 C 81.6875 444.6875 0.332031 350.316406 0.332031 233.902344 C 0.332031 117.488281 81.6875 23.113281 182.042969 23.113281 Z M 1255.957031 23.113281 " clip-rule="nonzero"/></clipPath><clipPath id="188cf14bce"><path d="M 0.332031 0.113281 L 1437.667969 0.113281 L 1437.667969 421.6875 L 0.332031 421.6875 Z M 0.332031 0.113281 " clip-rule="nonzero"/></clipPath><clipPath id="182407f07b"><path d="M 1255.957031 0.113281 C 1356.3125 0.113281 1437.667969 94.488281 1437.667969 210.902344 C 1437.667969 327.316406 1356.3125 421.6875 1255.957031 421.6875 L 182.042969 421.6875 C 81.6875 421.6875 0.332031 327.316406 0.332031 210.902344 C 0.332031 94.488281 81.6875 0.113281 182.042969 0.113281 Z M 1255.957031 0.113281 " clip-rule="nonzero"/></clipPath><clipPath id="a08271c15b"><rect x="0" width="1438" y="0" height="422"/></clipPath><clipPath id="a21b8cdbac"><path d="M 0.351562 23.113281 L 1437.175781 23.113281 L 1437.175781 444.121094 L 0.351562 444.121094 Z M 0.351562 23.113281 " clip-rule="nonzero"/></clipPath><clipPath id="a153674863"><path d="M 1255.921875 23.113281 C 1356.273438 23.113281 1437.625 117.484375 1437.625 233.890625 C 1437.625 350.300781 1356.273438 444.667969 1255.921875 444.667969 L 182.058594 444.667969 C 81.703125 444.667969 0.351562 350.300781 0.351562 233.890625 C 0.351562 117.484375 81.703125 23.113281 182.058594 23.113281 Z M 1255.921875 23.113281 " clip-rule="nonzero"/></clipPath><clipPath id="a8890c5bd5"><rect x="0" width="1438" y="0" height="467"/></clipPath><clipPath id="a78b13dab5"><path d="M 1.332031 35 L 1438.667969 35 L 1438.667969 502 L 1.332031 502 Z M 1.332031 35 " clip-rule="nonzero"/></clipPath><clipPath id="9e686a48d0"><path d="M 0.332031 23.714844 L 1437.667969 23.714844 L 1437.667969 445.289062 L 0.332031 445.289062 Z M 0.332031 23.714844 " clip-rule="nonzero"/></clipPath><clipPath id="0af7745b54"><path d="M 1255.957031 23.714844 C 1356.3125 23.714844 1437.667969 118.085938 1437.667969 234.5 C 1437.667969 350.914062 1356.3125 445.289062 1255.957031 445.289062 L 182.042969 445.289062 C 81.6875 445.289062 0.332031 350.914062 0.332031 234.5 C 0.332031 118.085938 81.6875 23.714844 182.042969 23.714844 Z M 1255.957031 23.714844 " clip-rule="nonzero"/></clipPath><clipPath id="6cba798fc1"><path d="M 0.332031 0.714844 L 1437.667969 0.714844 L 1437.667969 422.289062 L 0.332031 422.289062 Z M 0.332031 0.714844 " clip-rule="nonzero"/></clipPath><clipPath id="dddd9b9572"><path d="M 1255.957031 0.714844 C 1356.3125 0.714844 1437.667969 95.085938 1437.667969 211.5 C 1437.667969 327.914062 1356.3125 422.289062 1255.957031 422.289062 L 182.042969 422.289062 C 81.6875 422.289062 0.332031 327.914062 0.332031 211.5 C 0.332031 95.085938 81.6875 0.714844 182.042969 0.714844 Z M 1255.957031 0.714844 " clip-rule="nonzero"/></clipPath><clipPath id="4ede920c9c"><rect x="0" width="1438" y="0" height="423"/></clipPath><clipPath id="d48010eecc"><path d="M 0.351562 23.714844 L 1437.175781 23.714844 L 1437.175781 444.71875 L 0.351562 444.71875 Z M 0.351562 23.714844 " clip-rule="nonzero"/></clipPath><clipPath id="76db456df2"><path d="M 1255.921875 23.714844 C 1356.273438 23.714844 1437.625 118.082031 1437.625 234.492188 C 1437.625 350.902344 1356.273438 445.269531 1255.921875 445.269531 L 182.058594 445.269531 C 81.703125 445.269531 0.351562 350.902344 0.351562 234.492188 C 0.351562 118.082031 81.703125 23.714844 182.058594 23.714844 Z M 1255.921875 23.714844 " clip-rule="nonzero"/></clipPath><clipPath id="f18df1981d"><path d="M 0.34375 0.140625 L 259 0.140625 L 259 258.863281 L 0.34375 258.863281 Z M 0.34375 0.140625 " clip-rule="nonzero"/></clipPath><clipPath id="1af9fdb495"><rect x="0" width="260" y="0" height="259"/></clipPath><clipPath id="ea02847fe3"><rect x="0" width="1438" y="0" height="467"/></clipPath></defs><g clip-path="url(#b7d4dec621)"><g transform="matrix(1, 0, 0, 1, 1, 36)"><g clip-path="url(#a8890c5bd5)"><g clip-path="url(#79c4b8f1b7)"><g clip-path="url(#26367227db)"><g transform="matrix(1, 0, 0, 1, -0.000000000000000222, 23)"><g clip-path="url(#a08271c15b)"><g clip-path="url(#188cf14bce)"><g clip-path="url(#182407f07b)"><path fill="#ca4c4c" d="M 0.332031 0.113281 L 1437.964844 0.113281 L 1437.964844 421.6875 L 0.332031 421.6875 Z M 0.332031 0.113281 " fill-opacity="1" fill-rule="nonzero"/></g></g></g></g></g></g><g clip-path="url(#a21b8cdbac)"><g clip-path="url(#a153674863)"><path stroke-linecap="butt" transform="matrix(1.594721, 0, 0, 1.594721, 0.352935, 23.114392)" fill="none" stroke-linejoin="miter" d="M 787.328261 -0.000696408 C 850.255607 -0.000696408 901.268643 59.176484 901.268643 132.171225 C 901.268643 205.168416 850.255607 264.343147 787.328261 264.343147 L 113.941972 264.343147 C 51.012176 264.343147 -0.000860367 205.168416 -0.000860367 132.171225 C -0.000860367 59.176484 51.012176 -0.000696408 113.941972 -0.000696408 Z M 787.328261 -0.000696408 " stroke="#0a2041" stroke-width="3.755459" stroke-opacity="1" stroke-miterlimit="4"/></g></g></g></g></g><g clip-path="url(#a78b13dab5)"><g transform="matrix(1, 0, 0, 1, 1, 35)"><g clip-path="url(#ea02847fe3)"><g clip-path="url(#9e686a48d0)"><g clip-path="url(#0af7745b54)"><g transform="matrix(1, 0, 0, 1, -0.000000000000000222, 23)"><g clip-path="url(#4ede920c9c)"><g clip-path="url(#6cba798fc1)"><g clip-path="url(#dddd9b9572)"><path fill="#f8f5ee" d="M 0.332031 0.714844 L 1437.964844 0.714844 L 1437.964844 422.289062 L 0.332031 422.289062 Z M 0.332031 0.714844 " fill-opacity="1" fill-rule="nonzero"/></g></g></g></g></g></g><g clip-path="url(#d48010eecc)"><g clip-path="url(#76db456df2)"><path stroke-linecap="butt" transform="matrix(1.594721, 0, 0, 1.594721, 0.352935, 23.714103)" fill="none" stroke-linejoin="miter" d="M 787.328261 0.000464678 C 850.255607 0.000464678 901.268643 59.175195 901.268643 132.172386 C 901.268643 205.169577 850.255607 264.344308 787.328261 264.344308 L 113.941972 264.344308 C 51.012176 264.344308 -0.000860367 205.169577 -0.000860367 132.172386 C -0.000860367 59.175195 51.012176 0.000464678 113.941972 0.000464678 Z M 787.328261 0.000464678 " stroke="#0a2041" stroke-width="3.755459" stroke-opacity="1" stroke-miterlimit="4"/></g></g><path fill="#a7c4e7" d="M 278.015625 105.328125 L 187.601562 105.328125 L 187.601562 131.160156 L 252.183594 131.160156 L 252.183594 182.828125 L 187.601562 182.828125 L 187.601562 208.660156 L 278.015625 208.660156 L 278.015625 169.910156 L 342.597656 169.910156 L 342.597656 299.078125 L 278.015625 299.078125 L 278.015625 260.328125 L 187.601562 260.328125 L 187.601562 286.160156 L 252.183594 286.160156 L 252.183594 337.828125 L 187.601562 337.828125 L 187.601562 363.660156 L 278.015625 363.660156 L 278.015625 324.910156 L 368.433594 324.910156 L 368.433594 247.410156 L 445.933594 247.410156 L 445.933594 221.578125 L 368.433594 221.578125 L 368.433594 144.078125 L 278.015625 144.078125 Z M 278.015625 105.328125 " fill-opacity="1" fill-rule="nonzero"/><g transform="matrix(1, 0, 0, 1, 1009, 105)"><g clip-path="url(#1af9fdb495)"><g clip-path="url(#f18df1981d)"><path fill="#a7c4e7" d="M 168.425781 0.328125 L 258.84375 0.328125 L 258.84375 26.160156 L 194.261719 26.160156 L 194.261719 77.828125 L 258.84375 77.828125 L 258.84375 103.660156 L 168.425781 103.660156 L 168.425781 64.910156 L 103.84375 64.910156 L 103.84375 194.078125 L 168.425781 194.078125 L 168.425781 155.328125 L 258.84375 155.328125 L 258.84375 181.160156 L 194.261719 181.160156 L 194.261719 232.828125 L 258.84375 232.828125 L 258.84375 258.660156 L 168.425781 258.660156 L 168.425781 219.910156 L 78.011719 219.910156 L 78.011719 142.410156 L 0.511719 142.410156 L 0.511719 116.578125 L 78.011719 116.578125 L 78.011719 39.078125 L 168.425781 39.078125 Z M 168.425781 0.328125 " fill-opacity="1" fill-rule="nonzero"/></g></g></g><g fill="#ca4c4c" fill-opacity="1"><g transform="translate(510.598503, 197.822367)"><g><path d="M 10.25 0 L 10.25 -78.921875 L 43.9375 -78.921875 C 48.800781 -78.921875 52.914062 -78.15625 56.28125 -76.625 C 59.644531 -75.101562 62.191406 -72.925781 63.921875 -70.09375 C 65.648438 -67.269531 66.515625 -63.9375 66.515625 -60.09375 C 66.515625 -56.59375 65.664062 -53.507812 63.96875 -50.84375 C 62.28125 -48.1875 59.851562 -46.050781 56.6875 -44.4375 L 56.6875 -43.296875 C 61.65625 -42.003906 65.488281 -39.644531 68.1875 -36.21875 C 70.882812 -32.800781 72.234375 -28.609375 72.234375 -23.640625 C 72.234375 -16.085938 69.957031 -10.257812 65.40625 -6.15625 C 60.851562 -2.050781 54.09375 0 45.125 0 Z M 40.703125 -47.453125 C 47.972656 -47.453125 51.609375 -50.726562 51.609375 -57.28125 C 51.609375 -60.625 50.707031 -63.113281 48.90625 -64.75 C 47.113281 -66.394531 44.378906 -67.21875 40.703125 -67.21875 L 25.859375 -67.21875 L 25.859375 -47.453125 Z M 43.5625 -12.359375 C 52.164062 -12.359375 56.46875 -16.265625 56.46875 -24.078125 C 56.46875 -31.921875 52.164062 -35.84375 43.5625 -35.84375 L 25.859375 -35.84375 L 25.859375 -12.359375 Z M 43.5625 -12.359375 "/></g></g></g><g fill="#ca4c4c" fill-opacity="1"><g transform="translate(587.795475, 197.822367)"><g><path d="M 8.578125 0 L 8.578125 -59.546875 L 23.109375 -59.546875 L 23.109375 -50.6875 L 24.234375 -50.46875 C 25.679688 -53.78125 27.570312 -56.210938 29.90625 -57.765625 C 32.25 -59.316406 35.09375 -60.09375 38.4375 -60.09375 C 41.820312 -60.09375 44.394531 -59.515625 46.15625 -58.359375 L 43.625 -45.453125 L 42.484375 -45.234375 C 41.515625 -45.628906 40.578125 -45.914062 39.671875 -46.09375 C 38.773438 -46.28125 37.679688 -46.375 36.390625 -46.375 C 32.210938 -46.375 29.023438 -44.90625 26.828125 -41.96875 C 24.628906 -39.039062 23.53125 -34.335938 23.53125 -27.859375 L 23.53125 0 Z M 8.578125 0 "/></g></g></g><g fill="#ca4c4c" fill-opacity="1"><g transform="translate(633.357859, 197.822367)"><g><path d="M 23.21875 1.140625 C 19.394531 1.140625 16.078125 0.4375 13.265625 -0.96875 C 10.460938 -2.375 8.304688 -4.4375 6.796875 -7.15625 C 5.285156 -9.875 4.53125 -13.140625 4.53125 -16.953125 C 4.53125 -20.472656 5.285156 -23.429688 6.796875 -25.828125 C 8.304688 -28.222656 10.644531 -30.1875 13.8125 -31.71875 C 16.988281 -33.25 21.128906 -34.425781 26.234375 -35.25 C 29.796875 -35.820312 32.503906 -36.453125 34.359375 -37.140625 C 36.210938 -37.828125 37.460938 -38.601562 38.109375 -39.46875 C 38.753906 -40.332031 39.078125 -41.425781 39.078125 -42.75 C 39.078125 -44.664062 38.410156 -46.125 37.078125 -47.125 C 35.753906 -48.132812 33.546875 -48.640625 30.453125 -48.640625 C 27.140625 -48.640625 23.988281 -47.898438 21 -46.421875 C 18.007812 -44.953125 15.414062 -43.007812 13.21875 -40.59375 L 12.140625 -40.59375 L 5.890625 -50.046875 C 8.910156 -53.390625 12.597656 -56 16.953125 -57.875 C 21.304688 -59.75 26.054688 -60.6875 31.203125 -60.6875 C 39.085938 -60.6875 44.789062 -59.007812 48.3125 -55.65625 C 51.84375 -52.3125 53.609375 -47.5625 53.609375 -41.40625 L 53.609375 -15.546875 C 53.609375 -12.878906 54.773438 -11.546875 57.109375 -11.546875 C 58.015625 -11.546875 58.898438 -11.707031 59.765625 -12.03125 L 60.515625 -11.828125 L 61.59375 -1.40625 C 60.769531 -0.863281 59.617188 -0.421875 58.140625 -0.078125 C 56.660156 0.265625 55.039062 0.4375 53.28125 0.4375 C 49.71875 0.4375 46.9375 -0.242188 44.9375 -1.609375 C 42.945312 -2.984375 41.519531 -5.128906 40.65625 -8.046875 L 39.515625 -8.15625 C 36.597656 -1.957031 31.164062 1.140625 23.21875 1.140625 Z M 27.96875 -10.046875 C 31.414062 -10.046875 34.175781 -11.203125 36.25 -13.515625 C 38.320312 -15.835938 39.359375 -19.070312 39.359375 -23.21875 L 39.359375 -29.265625 L 38.328125 -29.46875 C 37.429688 -28.75 36.253906 -28.144531 34.796875 -27.65625 C 33.335938 -27.175781 31.238281 -26.703125 28.5 -26.234375 C 25.257812 -25.691406 22.925781 -24.765625 21.5 -23.453125 C 20.082031 -22.140625 19.375 -20.28125 19.375 -17.875 C 19.375 -15.3125 20.128906 -13.363281 21.640625 -12.03125 C 23.160156 -10.707031 25.269531 -10.046875 27.96875 -10.046875 Z M 27.96875 -10.046875 "/></g></g></g><g fill="#ca4c4c" fill-opacity="1"><g transform="translate(696.141143, 197.822367)"><g><path d="M 34.71875 1.140625 C 28.957031 1.140625 23.863281 -0.0546875 19.4375 -2.453125 C 15.007812 -4.847656 11.550781 -8.363281 9.0625 -13 C 6.582031 -17.644531 5.34375 -23.226562 5.34375 -29.75 C 5.34375 -36.300781 6.582031 -41.894531 9.0625 -46.53125 C 11.550781 -51.175781 14.988281 -54.695312 19.375 -57.09375 C 23.769531 -59.488281 28.789062 -60.6875 34.4375 -60.6875 C 47 -60.6875 55.046875 -56.128906 58.578125 -47.015625 L 48.3125 -39.671875 L 47.1875 -39.671875 C 45.957031 -42.484375 44.363281 -44.570312 42.40625 -45.9375 C 40.445312 -47.3125 37.789062 -48 34.4375 -48 C 30.125 -48 26.757812 -46.503906 24.34375 -43.515625 C 21.9375 -40.523438 20.734375 -35.9375 20.734375 -29.75 C 20.734375 -23.625 21.957031 -19.054688 24.40625 -16.046875 C 26.851562 -13.046875 30.289062 -11.546875 34.71875 -11.546875 C 37.957031 -11.546875 40.695312 -12.421875 42.9375 -14.171875 C 45.1875 -15.921875 46.800781 -18.429688 47.78125 -21.703125 L 48.90625 -21.8125 L 59.546875 -15.984375 C 58.035156 -10.941406 55.238281 -6.828125 51.15625 -3.640625 C 47.070312 -0.453125 41.59375 1.140625 34.71875 1.140625 Z M 34.71875 1.140625 "/></g></g></g><g fill="#ca4c4c" fill-opacity="1"><g transform="translate(757.520846, 197.822367)"><g><path d="M 8.578125 0 L 8.578125 -83.46875 L 23.53125 -83.46875 L 23.53125 -37.140625 L 25 -37.140625 L 42.21875 -59.546875 L 57.390625 -59.546875 L 57.390625 -58.296875 L 37.140625 -32.171875 L 59.65625 -1.34375 L 59.65625 0 L 43.890625 0 L 25 -25.109375 L 23.53125 -25.109375 L 23.53125 0 Z M 8.578125 0 "/></g></g></g><g fill="#ca4c4c" fill-opacity="1"><g transform="translate(816.363268, 197.822367)"><g><path d="M 58.84375 -26.40625 L 20.5625 -26.40625 C 21 -21.21875 22.476562 -17.441406 25 -15.078125 C 27.519531 -12.722656 30.957031 -11.546875 35.3125 -11.546875 C 38.726562 -11.546875 41.5 -12.1875 43.625 -13.46875 C 45.75 -14.75 47.457031 -16.679688 48.75 -19.265625 L 49.875 -19.265625 L 59.8125 -12.90625 C 57.875 -8.726562 54.941406 -5.34375 51.015625 -2.75 C 47.085938 -0.15625 41.851562 1.140625 35.3125 1.140625 C 29.15625 1.140625 23.832031 -0.03125 19.34375 -2.375 C 14.863281 -4.71875 11.410156 -8.203125 8.984375 -12.828125 C 6.554688 -17.453125 5.34375 -23.09375 5.34375 -29.75 C 5.34375 -36.507812 6.617188 -42.210938 9.171875 -46.859375 C 11.734375 -51.503906 15.191406 -54.96875 19.546875 -57.25 C 23.898438 -59.539062 28.796875 -60.6875 34.234375 -60.6875 C 42.648438 -60.6875 49.097656 -58.453125 53.578125 -53.984375 C 58.054688 -49.523438 60.296875 -42.972656 60.296875 -34.328125 C 60.296875 -31.203125 60.191406 -28.773438 59.984375 -27.046875 Z M 46 -36.0625 C 45.851562 -40.59375 44.796875 -43.894531 42.828125 -45.96875 C 40.867188 -48.039062 38.003906 -49.078125 34.234375 -49.078125 C 26.671875 -49.078125 22.222656 -44.738281 20.890625 -36.0625 Z M 46 -36.0625 "/></g></g></g><g fill="#ca4c4c" fill-opacity="1"><g transform="translate(881.089971, 197.822367)"><g><path d="M 41.078125 -14.203125 L 44.96875 -3.125 C 43.351562 -1.800781 41.320312 -0.757812 38.875 0 C 36.425781 0.757812 33.65625 1.140625 30.5625 1.140625 C 24.113281 1.140625 19.210938 -0.613281 15.859375 -4.125 C 12.515625 -7.632812 10.84375 -12.738281 10.84375 -19.4375 L 10.84375 -47.71875 L 1.78125 -47.71875 L 1.78125 -59.59375 L 10.84375 -59.59375 L 10.84375 -71.203125 L 25.8125 -73.640625 L 25.8125 -59.59375 L 42.703125 -59.59375 L 42.703125 -47.71875 L 25.8125 -47.71875 L 25.8125 -20.515625 C 25.8125 -17.566406 26.421875 -15.414062 27.640625 -14.0625 C 28.859375 -12.707031 30.640625 -12.03125 32.984375 -12.03125 C 35.648438 -12.03125 37.972656 -12.753906 39.953125 -14.203125 Z M 41.078125 -14.203125 "/></g></g></g><g fill="#ca4c4c" fill-opacity="1"><g transform="translate(478.82867, 352.510307)"><g><path d="M 24.5625 0 L 10.25 0 L 10.25 -78.921875 L 30.65625 -78.921875 L 50.640625 -20.890625 L 51.765625 -20.890625 L 71.640625 -78.921875 L 91.5625 -78.921875 L 91.5625 0 L 76.765625 0 L 76.765625 -52.15625 L 75.421875 -52.359375 L 57.171875 0 L 44.15625 0 L 25.90625 -52.359375 L 24.5625 -52.15625 Z M 24.5625 0 "/></g></g></g><g fill="#ca4c4c" fill-opacity="1"><g transform="translate(580.696294, 352.510307)"><g><path d="M 23.21875 1.140625 C 19.394531 1.140625 16.078125 0.4375 13.265625 -0.96875 C 10.460938 -2.375 8.304688 -4.4375 6.796875 -7.15625 C 5.285156 -9.875 4.53125 -13.140625 4.53125 -16.953125 C 4.53125 -20.472656 5.285156 -23.429688 6.796875 -25.828125 C 8.304688 -28.222656 10.644531 -30.1875 13.8125 -31.71875 C 16.988281 -33.25 21.128906 -34.425781 26.234375 -35.25 C 29.796875 -35.820312 32.503906 -36.453125 34.359375 -37.140625 C 36.210938 -37.828125 37.460938 -38.601562 38.109375 -39.46875 C 38.753906 -40.332031 39.078125 -41.425781 39.078125 -42.75 C 39.078125 -44.664062 38.410156 -46.125 37.078125 -47.125 C 35.753906 -48.132812 33.546875 -48.640625 30.453125 -48.640625 C 27.140625 -48.640625 23.988281 -47.898438 21 -46.421875 C 18.007812 -44.953125 15.414062 -43.007812 13.21875 -40.59375 L 12.140625 -40.59375 L 5.890625 -50.046875 C 8.910156 -53.390625 12.597656 -56 16.953125 -57.875 C 21.304688 -59.75 26.054688 -60.6875 31.203125 -60.6875 C 39.085938 -60.6875 44.789062 -59.007812 48.3125 -55.65625 C 51.84375 -52.3125 53.609375 -47.5625 53.609375 -41.40625 L 53.609375 -15.546875 C 53.609375 -12.878906 54.773438 -11.546875 57.109375 -11.546875 C 58.015625 -11.546875 58.898438 -11.707031 59.765625 -12.03125 L 60.515625 -11.828125 L 61.59375 -1.40625 C 60.769531 -0.863281 59.617188 -0.421875 58.140625 -0.078125 C 56.660156 0.265625 55.039062 0.4375 53.28125 0.4375 C 49.71875 0.4375 46.9375 -0.242188 44.9375 -1.609375 C 42.945312 -2.984375 41.519531 -5.128906 40.65625 -8.046875 L 39.515625 -8.15625 C 36.597656 -1.957031 31.164062 1.140625 23.21875 1.140625 Z M 27.96875 -10.046875 C 31.414062 -10.046875 34.175781 -11.203125 36.25 -13.515625 C 38.320312 -15.835938 39.359375 -19.070312 39.359375 -23.21875 L 39.359375 -29.265625 L 38.328125 -29.46875 C 37.429688 -28.75 36.253906 -28.144531 34.796875 -27.65625 C 33.335938 -27.175781 31.238281 -26.703125 28.5 -26.234375 C 25.257812 -25.691406 22.925781 -24.765625 21.5 -23.453125 C 20.082031 -22.140625 19.375 -20.28125 19.375 -17.875 C 19.375 -15.3125 20.128906 -13.363281 21.640625 -12.03125 C 23.160156 -10.707031 25.269531 -10.046875 27.96875 -10.046875 Z M 27.96875 -10.046875 "/></g></g></g><g fill="#ca4c4c" fill-opacity="1"><g transform="translate(643.479578, 352.510307)"><g><path d="M 29.421875 1.140625 C 24.703125 1.140625 20.535156 0 16.921875 -2.28125 C 13.304688 -4.570312 10.472656 -8.03125 8.421875 -12.65625 C 6.367188 -17.28125 5.34375 -22.976562 5.34375 -29.75 C 5.34375 -36.550781 6.394531 -42.265625 8.5 -46.890625 C 10.601562 -51.515625 13.515625 -54.96875 17.234375 -57.25 C 20.960938 -59.539062 25.273438 -60.6875 30.171875 -60.6875 C 33.878906 -60.6875 37.09375 -60.046875 39.8125 -58.765625 C 42.53125 -57.484375 44.828125 -55.492188 46.703125 -52.796875 L 47.828125 -53.0625 L 47.828125 -83.46875 L 62.78125 -83.46875 L 62.78125 0 L 47.828125 0 L 47.828125 -7.71875 L 46.703125 -7.9375 C 45.046875 -5.125 42.773438 -2.90625 39.890625 -1.28125 C 37.015625 0.332031 33.523438 1.140625 29.421875 1.140625 Z M 34.28125 -11.546875 C 38.488281 -11.546875 41.816406 -13.046875 44.265625 -16.046875 C 46.710938 -19.054688 47.9375 -23.625 47.9375 -29.75 C 47.9375 -35.863281 46.710938 -40.429688 44.265625 -43.453125 C 41.816406 -46.484375 38.488281 -48 34.28125 -48 C 29.882812 -48 26.523438 -46.53125 24.203125 -43.59375 C 21.890625 -40.65625 20.734375 -36.039062 20.734375 -29.75 C 20.734375 -23.488281 21.890625 -18.890625 24.203125 -15.953125 C 26.523438 -13.015625 29.882812 -11.546875 34.28125 -11.546875 Z M 34.28125 -11.546875 "/></g></g></g><g fill="#ca4c4c" fill-opacity="1"><g transform="translate(714.846288, 352.510307)"><g><path d="M 8.578125 0 L 8.578125 -59.546875 L 22.9375 -59.546875 L 22.9375 -50.796875 L 24.078125 -50.53125 C 27.785156 -57.300781 33.796875 -60.6875 42.109375 -60.6875 C 48.984375 -60.6875 54.03125 -58.8125 57.25 -55.0625 C 60.46875 -51.320312 62.078125 -45.867188 62.078125 -38.703125 L 62.078125 0 L 47.125 0 L 47.125 -36.875 C 47.125 -40.832031 46.332031 -43.679688 44.75 -45.421875 C 43.164062 -47.171875 40.628906 -48.046875 37.140625 -48.046875 C 32.859375 -48.046875 29.519531 -46.660156 27.125 -43.890625 C 24.726562 -41.117188 23.53125 -36.765625 23.53125 -30.828125 L 23.53125 0 Z M 8.578125 0 "/></g></g></g><g fill="#ca4c4c" fill-opacity="1"><g transform="translate(784.593482, 352.510307)"><g><path d="M 58.84375 -26.40625 L 20.5625 -26.40625 C 21 -21.21875 22.476562 -17.441406 25 -15.078125 C 27.519531 -12.722656 30.957031 -11.546875 35.3125 -11.546875 C 38.726562 -11.546875 41.5 -12.1875 43.625 -13.46875 C 45.75 -14.75 47.457031 -16.679688 48.75 -19.265625 L 49.875 -19.265625 L 59.8125 -12.90625 C 57.875 -8.726562 54.941406 -5.34375 51.015625 -2.75 C 47.085938 -0.15625 41.851562 1.140625 35.3125 1.140625 C 29.15625 1.140625 23.832031 -0.03125 19.34375 -2.375 C 14.863281 -4.71875 11.410156 -8.203125 8.984375 -12.828125 C 6.554688 -17.453125 5.34375 -23.09375 5.34375 -29.75 C 5.34375 -36.507812 6.617188 -42.210938 9.171875 -46.859375 C 11.734375 -51.503906 15.191406 -54.96875 19.546875 -57.25 C 23.898438 -59.539062 28.796875 -60.6875 34.234375 -60.6875 C 42.648438 -60.6875 49.097656 -58.453125 53.578125 -53.984375 C 58.054688 -49.523438 60.296875 -42.972656 60.296875 -34.328125 C 60.296875 -31.203125 60.191406 -28.773438 59.984375 -27.046875 Z M 46 -36.0625 C 45.851562 -40.59375 44.796875 -43.894531 42.828125 -45.96875 C 40.867188 -48.039062 38.003906 -49.078125 34.234375 -49.078125 C 26.671875 -49.078125 22.222656 -44.738281 20.890625 -36.0625 Z M 46 -36.0625 "/></g></g></g><g fill="#ca4c4c" fill-opacity="1"><g transform="translate(849.320186, 352.510307)"><g><path d="M 27.859375 1.140625 C 23.785156 1.140625 20.054688 0.660156 16.671875 -0.296875 C 13.296875 -1.253906 10.410156 -2.566406 8.015625 -4.234375 C 5.617188 -5.910156 3.847656 -7.828125 2.703125 -9.984375 L 11.015625 -18.953125 L 12.140625 -18.953125 C 14.117188 -16.285156 16.457031 -14.285156 19.15625 -12.953125 C 21.863281 -11.617188 24.800781 -10.953125 27.96875 -10.953125 C 30.882812 -10.953125 33.078125 -11.472656 34.546875 -12.515625 C 36.023438 -13.566406 36.765625 -15.0625 36.765625 -17 C 36.765625 -18.507812 36.234375 -19.773438 35.171875 -20.796875 C 34.109375 -21.828125 32.390625 -22.632812 30.015625 -23.21875 L 22.140625 -25.109375 C 16.234375 -26.503906 11.921875 -28.648438 9.203125 -31.546875 C 6.484375 -34.453125 5.125 -38.132812 5.125 -42.59375 C 5.125 -46.300781 6.066406 -49.519531 7.953125 -52.25 C 9.847656 -54.988281 12.515625 -57.078125 15.953125 -58.515625 C 19.390625 -59.960938 23.394531 -60.6875 27.96875 -60.6875 C 33.332031 -60.6875 37.773438 -59.910156 41.296875 -58.359375 C 44.828125 -56.804688 47.582031 -54.738281 49.5625 -52.15625 L 41.5625 -43.515625 L 40.484375 -43.515625 C 38.828125 -45.378906 36.960938 -46.742188 34.890625 -47.609375 C 32.828125 -48.472656 30.519531 -48.90625 27.96875 -48.90625 C 22.0625 -48.90625 19.109375 -47.070312 19.109375 -43.40625 C 19.109375 -41.851562 19.65625 -40.59375 20.75 -39.625 C 21.851562 -38.65625 23.789062 -37.863281 26.5625 -37.25 L 33.90625 -35.625 C 39.945312 -34.332031 44.363281 -32.253906 47.15625 -29.390625 C 49.945312 -26.535156 51.34375 -22.695312 51.34375 -17.875 C 51.34375 -14.09375 50.40625 -10.757812 48.53125 -7.875 C 46.65625 -5 43.953125 -2.773438 40.421875 -1.203125 C 36.898438 0.359375 32.710938 1.140625 27.859375 1.140625 Z M 27.859375 1.140625 "/></g></g></g><g fill="#ca4c4c" fill-opacity="1"><g transform="translate(904.221821, 352.510307)"><g><path d="M 27.859375 1.140625 C 23.785156 1.140625 20.054688 0.660156 16.671875 -0.296875 C 13.296875 -1.253906 10.410156 -2.566406 8.015625 -4.234375 C 5.617188 -5.910156 3.847656 -7.828125 2.703125 -9.984375 L 11.015625 -18.953125 L 12.140625 -18.953125 C 14.117188 -16.285156 16.457031 -14.285156 19.15625 -12.953125 C 21.863281 -11.617188 24.800781 -10.953125 27.96875 -10.953125 C 30.882812 -10.953125 33.078125 -11.472656 34.546875 -12.515625 C 36.023438 -13.566406 36.765625 -15.0625 36.765625 -17 C 36.765625 -18.507812 36.234375 -19.773438 35.171875 -20.796875 C 34.109375 -21.828125 32.390625 -22.632812 30.015625 -23.21875 L 22.140625 -25.109375 C 16.234375 -26.503906 11.921875 -28.648438 9.203125 -31.546875 C 6.484375 -34.453125 5.125 -38.132812 5.125 -42.59375 C 5.125 -46.300781 6.066406 -49.519531 7.953125 -52.25 C 9.847656 -54.988281 12.515625 -57.078125 15.953125 -58.515625 C 19.390625 -59.960938 23.394531 -60.6875 27.96875 -60.6875 C 33.332031 -60.6875 37.773438 -59.910156 41.296875 -58.359375 C 44.828125 -56.804688 47.582031 -54.738281 49.5625 -52.15625 L 41.5625 -43.515625 L 40.484375 -43.515625 C 38.828125 -45.378906 36.960938 -46.742188 34.890625 -47.609375 C 32.828125 -48.472656 30.519531 -48.90625 27.96875 -48.90625 C 22.0625 -48.90625 19.109375 -47.070312 19.109375 -43.40625 C 19.109375 -41.851562 19.65625 -40.59375 20.75 -39.625 C 21.851562 -38.65625 23.789062 -37.863281 26.5625 -37.25 L 33.90625 -35.625 C 39.945312 -34.332031 44.363281 -32.253906 47.15625 -29.390625 C 49.945312 -26.535156 51.34375 -22.695312 51.34375 -17.875 C 51.34375 -14.09375 50.40625 -10.757812 48.53125 -7.875 C 46.65625 -5 43.953125 -2.773438 40.421875 -1.203125 C 36.898438 0.359375 32.710938 1.140625 27.859375 1.140625 Z M 27.859375 1.140625 "/></g></g></g></g></g></g></svg>