<?xml version="1.0" encoding="UTF-8"?>
<svg width="120" height="120" viewBox="0 0 24 24" fill="none" xmlns="http://www.w3.org/2000/svg" aria-hidden>
  <path d="M3.5 7.2c1.6-1 3.4-1 4.6-.1l1 .7 1-1c1-.9 2.7-1 4.1.1l1.2.9v8.1c0 .6-.5 1-1 1h-14c-.6 0-1-.5-1-1V7.2z" fill="#0A2041"/>
  <path d="M8.2 6.3c.3-.3 1-.3 1.3 0l.4.4.4-.4c.3-.3 1-.3 1.3 0" stroke="#F8F5EE" stroke-width="1.1" stroke-linecap="round" stroke-linejoin="round"/>
  <rect x="6.8" y="11.6" width="10" height="1.2" rx="0.6" fill="#F8F5EE" opacity="0.95"/>
</svg>
