<?xml version="1.0" encoding="UTF-8"?>
<svg id="Layer_1" data-name="Layer 1" xmlns="http://www.w3.org/2000/svg" viewBox="0 0 1344 256">
  <defs>
    <style>
      .cls-1 {
        fill: #e7a3a3;
      }

      .cls-2 {
        fill: #ca4c4c;
      }
    </style>
  </defs>
  <g>
    <path class="cls-1" d="M867.07,89.01c-3.1,0-5.93.79-8.49,2.38-2.56,1.59-4.74,3.8-6.55,6.64-1.81,2.85-3.22,6.29-4.22,10.33-1,4.04-1.5,8.52-1.5,13.43,0,4.59.53,8.84,1.6,12.76,1.07,3.91,2.59,7.29,4.56,10.14,1.97,2.85,4.35,5.08,7.13,6.69,2.78,1.62,5.88,2.43,9.31,2.43,4.2,0,7.66-.71,10.38-2.13,2.72-1.42,4.23-3.33,4.56-5.72v-16.68c0-2.2-.79-3.78-2.38-4.75-1.59-.97-3.67-1.68-6.26-2.13v-.97h20.37v.97c-1.62.26-2.68.73-3.2,1.41-.52.68-.78,1.92-.78,3.73v27.74h-.97c-.19-1.29-.76-2.33-1.7-3.1-.94-.78-2.05-1.16-3.35-1.16-.97,0-2.02.28-3.15.82-1.13.55-2.49,1.15-4.07,1.79-1.59.65-3.43,1.25-5.53,1.79-2.1.55-4.58.82-7.42.82-4.01,0-7.66-.82-10.96-2.47-3.3-1.65-6.13-3.98-8.49-6.98-2.36-3.01-4.19-6.63-5.48-10.86-1.29-4.23-1.94-8.94-1.94-14.11,0-4.59.61-8.96,1.84-13.09,1.23-4.14,3.09-7.79,5.58-10.96,2.49-3.17,5.59-5.67,9.31-7.52,3.72-1.84,8.07-2.73,13.05-2.67,2.78.07,5.8.58,9.07,1.55,3.26.97,6.19,2.26,8.78,3.88l.97,14.45h-.97c-2.26-6.53-4.9-11.23-7.9-14.11-3.01-2.88-6.74-4.32-11.2-4.32Z"/>
    <path class="cls-1" d="M897.53,110.54h13.29v9.02c.91-1.29,1.81-2.54,2.72-3.73.9-1.2,1.89-2.26,2.96-3.2,1.07-.94,2.23-1.68,3.49-2.23,1.26-.55,2.67-.82,4.22-.82,2.2,0,3.96.49,5.29,1.45,1.32.97,1.99,2.3,1.99,3.98,0,1.16-.36,2.1-1.07,2.81-.71.71-1.65,1.07-2.81,1.07-1.1,0-1.91-.24-2.42-.73-.52-.48-.97-1.03-1.36-1.65-.39-.61-.84-1.16-1.36-1.65-.52-.49-1.33-.73-2.42-.73-1.75,0-3.35.81-4.8,2.43-1.45,1.62-2.93,3.43-4.41,5.43v27.25c0,1.55.4,2.7,1.21,3.44.81.74,2.25,1.28,4.32,1.6v.97h-18.82v-.97c2.07-.32,3.51-.87,4.32-1.65.81-.78,1.21-1.94,1.21-3.49v-32.49c0-1.55-.4-2.72-1.21-3.49-.81-.78-2.25-1.32-4.32-1.65v-.97Z"/>
    <path class="cls-1" d="M950.78,109.47c2.91,0,5.54.57,7.91,1.7,2.36,1.13,4.38,2.72,6.06,4.75,1.68,2.04,2.99,4.49,3.93,7.37.94,2.88,1.41,6.06,1.41,9.55s-.47,6.68-1.41,9.55c-.94,2.88-2.25,5.33-3.93,7.37-1.68,2.04-3.7,3.62-6.06,4.75-2.36,1.13-5,1.7-7.91,1.7s-5.55-.57-7.9-1.7c-2.36-1.13-4.38-2.72-6.06-4.75-1.68-2.04-2.99-4.49-3.93-7.37-.94-2.88-1.41-6.06-1.41-9.55s.47-6.68,1.41-9.55c.94-2.88,2.25-5.33,3.93-7.37,1.68-2.04,3.7-3.62,6.06-4.75,2.36-1.13,4.99-1.7,7.9-1.7ZM950.78,154.77c3.88,0,6.77-2,8.68-6.01,1.91-4.01,2.86-9.31,2.86-15.91s-.95-11.9-2.86-15.91c-1.91-4.01-4.8-6.01-8.68-6.01s-6.77,2-8.68,6.01c-1.91,4.01-2.86,9.31-2.86,15.91s.95,11.9,2.86,15.91c1.91,4.01,4.8,6.01,8.68,6.01Z"/>
    <path class="cls-1" d="M1011.5,110.54v38.6c0,1.55.4,2.72,1.21,3.49.81.78,2.25,1.33,4.32,1.65v.97h-13.29v-5.63c-2.26,2.39-4.33,4.09-6.21,5.09-1.88,1-3.95,1.5-6.21,1.5-4.14,0-7.47-1.16-9.99-3.49-2.52-2.33-3.78-5.43-3.78-9.31v-26.87c0-1.55-.4-2.7-1.21-3.44-.81-.74-2.25-1.28-4.32-1.6v-.97h13.29v31.91c0,2.91.86,5.24,2.57,6.98,1.71,1.75,3.99,2.62,6.84,2.62,3.17,0,6.17-1.52,9.02-4.56v-30.94c0-1.55-.4-2.7-1.21-3.44-.81-.74-2.25-1.28-4.32-1.6v-.97h13.29Z"/>
    <path class="cls-1" d="M1051.55,149.15v-25.8c0-2.91-.86-5.24-2.57-6.98-1.71-1.75-3.99-2.62-6.84-2.62-1.68,0-3.38.36-5.09,1.07-1.71.71-3.31,1.71-4.8,3.01v31.43c0,1.55.4,2.7,1.21,3.44.81.74,2.25,1.28,4.32,1.6v.97h-18.82v-.97c2.07-.32,3.51-.87,4.32-1.65.81-.78,1.21-1.94,1.21-3.49v-32.49c0-1.55-.41-2.72-1.21-3.49-.81-.78-2.25-1.32-4.32-1.65v-.97h13.29v5.33c2.65-2.26,4.98-3.88,6.98-4.85,2-.97,4.11-1.45,6.31-1.45,4.14,0,7.47,1.16,9.99,3.49,2.52,2.33,3.78,5.43,3.78,9.31v26.87c0,1.55.4,2.7,1.21,3.44.81.74,2.25,1.28,4.32,1.6v.97h-18.82v-.97c2.07-.32,3.51-.87,4.32-1.65.81-.78,1.21-1.94,1.21-3.49Z"/>
    <path class="cls-1" d="M1101.5,149.15c0,1.55.4,2.72,1.21,3.49.81.78,2.25,1.33,4.32,1.65v.97h-13.29v-5.63c-2.26,2.39-4.33,4.09-6.21,5.09-1.88,1-3.95,1.5-6.21,1.5-2.46,0-4.69-.57-6.69-1.7-2-1.13-3.73-2.72-5.19-4.75-1.45-2.04-2.57-4.48-3.35-7.32-.78-2.84-1.16-6.01-1.16-9.51s.47-6.68,1.41-9.55c.94-2.88,2.26-5.33,3.98-7.37,1.71-2.04,3.78-3.62,6.21-4.75,2.42-1.13,5.12-1.7,8.1-1.7,1.68,0,3.3.28,4.85.82,1.55.55,2.97,1.31,4.27,2.28v-18.82c0-1.55-.4-2.72-1.21-3.49-.81-.78-2.25-1.32-4.32-1.65v-.97h13.29v61.4ZM1072.7,132.95c0,2.85.29,5.45.87,7.81.58,2.36,1.41,4.38,2.47,6.06,1.07,1.68,2.33,2.98,3.78,3.88,1.45.91,3.09,1.36,4.9,1.36,3.17,0,6.17-1.52,9.02-4.56v-28.13c-.65-2.52-1.79-4.54-3.44-6.06-1.65-1.52-3.54-2.28-5.67-2.28-1.81,0-3.44.52-4.9,1.55-1.45,1.04-2.7,2.52-3.73,4.46-1.03,1.94-1.84,4.25-2.42,6.94-.58,2.68-.87,5.67-.87,8.97Z"/>
  </g>
  <g>
    <path class="cls-1" d="M577.28,156.13c-4.15,0-7.93-.83-11.33-2.48-3.4-1.65-6.32-3.99-8.75-7.01-2.43-3.01-4.31-6.65-5.64-10.89-1.33-4.25-1.99-8.93-1.99-14.06s.66-9.89,1.99-14.1c1.33-4.22,3.21-7.81,5.64-10.8,2.43-2.98,5.35-5.3,8.75-6.96,3.4-1.65,7.18-2.48,11.33-2.48s7.91.83,11.28,2.48c3.37,1.65,6.27,3.97,8.71,6.96,2.43,2.98,4.31,6.58,5.64,10.8,1.33,4.21,1.99,8.92,1.99,14.1s-.67,9.81-1.99,14.06c-1.33,4.25-3.21,7.88-5.64,10.89-2.43,3.02-5.34,5.35-8.71,7.01-3.37,1.65-7.13,2.48-11.28,2.48ZM597.12,121.69c0-4.99-.47-9.5-1.41-13.52-.94-4.02-2.29-7.47-4.04-10.36-1.75-2.89-3.84-5.11-6.27-6.66-2.43-1.56-5.14-2.33-8.12-2.33s-5.71.8-8.17,2.38c-2.46,1.59-4.57,3.81-6.32,6.66-1.75,2.85-3.1,6.31-4.04,10.36-.94,4.05-1.41,8.55-1.41,13.47s.47,9.52,1.41,13.57c.94,4.05,2.29,7.52,4.04,10.41,1.75,2.89,3.86,5.11,6.32,6.66,2.46,1.56,5.19,2.33,8.17,2.33s5.79-.78,8.22-2.33c2.43-1.56,4.51-3.76,6.23-6.61,1.72-2.85,3.05-6.31,3.99-10.36.94-4.05,1.41-8.61,1.41-13.67Z"/>
    <path class="cls-1" d="M639.53,149.13v-25.88c0-2.92-.86-5.25-2.58-7-1.72-1.75-4-2.63-6.86-2.63-1.69,0-3.39.36-5.11,1.07-1.72.72-3.32,1.72-4.81,3.02v31.52c0,1.56.4,2.71,1.22,3.45.81.75,2.25,1.28,4.33,1.6v.97h-18.87v-.97c2.07-.32,3.52-.88,4.33-1.65.81-.78,1.22-1.95,1.22-3.5v-32.59c0-1.56-.41-2.72-1.22-3.5-.81-.78-2.25-1.33-4.33-1.65v-.97h13.33v5.35c2.66-2.27,4.99-3.89,7-4.86,2.01-.97,4.12-1.46,6.32-1.46,4.15,0,7.49,1.17,10.02,3.5,2.53,2.33,3.79,5.45,3.79,9.34v26.95c0,1.56.4,2.71,1.22,3.45.81.75,2.25,1.28,4.33,1.6v.97h-18.87v-.97c2.08-.32,3.52-.88,4.33-1.65s1.22-1.95,1.22-3.5Z"/>
    <path class="cls-1" d="M675.24,103.99h-.97l3.31-16.44h48.25l3.31,16.44h-.97c-1.36-4.86-3.67-8.57-6.91-11.14s-7.29-3.84-12.16-3.84h-3.5v60.12c0,1.56.4,2.72,1.22,3.5.81.78,2.25,1.33,4.33,1.65v.97h-18.87v-.97c2.08-.32,3.52-.88,4.33-1.65.81-.78,1.21-1.95,1.21-3.5v-60.12h-3.5c-4.86,0-8.92,1.28-12.16,3.84-3.24,2.56-5.55,6.27-6.91,11.14Z"/>
    <path class="cls-1" d="M763.75,149.13v-25.88c0-2.92-.86-5.25-2.58-7-1.72-1.75-4-2.63-6.86-2.63-1.69,0-3.39.36-5.11,1.07-1.72.72-3.32,1.72-4.81,3.02v31.52c0,1.56.4,2.71,1.22,3.45.81.75,2.25,1.28,4.33,1.6v.97h-18.87v-.97c2.08-.32,3.52-.88,4.33-1.65.81-.78,1.22-1.95,1.22-3.5v-55.45c0-1.56-.41-2.72-1.22-3.5-.81-.78-2.25-1.33-4.33-1.65v-.97h13.33v28.21c2.66-2.27,4.99-3.89,7-4.86,2.01-.97,4.12-1.46,6.32-1.46,4.15,0,7.49,1.17,10.02,3.5,2.53,2.33,3.8,5.45,3.8,9.34v26.95c0,1.56.4,2.71,1.21,3.45.81.75,2.25,1.28,4.33,1.6v.97h-18.87v-.97c2.08-.32,3.52-.88,4.33-1.65.81-.78,1.21-1.95,1.21-3.5Z"/>
    <path class="cls-1" d="M784.96,127.34c-.07.58-.1,1.17-.1,1.75v1.85c0,3.11.36,5.92,1.07,8.41s1.73,4.65,3.06,6.47c1.33,1.82,2.92,3.21,4.77,4.18,1.85.97,3.88,1.46,6.08,1.46,2.46,0,4.81-.54,7.05-1.6,2.24-1.07,3.91-2.48,5.01-4.23l1.17.88c-1.95,3.11-4.31,5.51-7.1,7.2-2.79,1.68-5.77,2.53-8.95,2.53-2.98,0-5.69-.57-8.12-1.7-2.43-1.13-4.51-2.72-6.23-4.77s-3.06-4.51-4.04-7.39c-.97-2.89-1.46-6.08-1.46-9.58s.44-6.7,1.31-9.58c.88-2.89,2.11-5.35,3.7-7.39,1.59-2.04,3.52-3.63,5.79-4.77,2.27-1.13,4.8-1.7,7.59-1.7s5.06.44,7.2,1.31c2.14.88,3.97,2.09,5.5,3.65,1.52,1.56,2.71,3.44,3.55,5.64.84,2.2,1.26,4.67,1.26,7.39h-28.11ZM805.58,125.88c-.13-4.54-1.1-8.18-2.92-10.94-1.82-2.76-4.18-4.13-7.1-4.13-2.72,0-5.01,1.35-6.86,4.04-1.85,2.69-3.03,6.37-3.55,11.04h20.43Z"/>
  </g>
  <g>
    <path class="cls-2" d="M243.2,80.22c8.47,5.83,18.01,7.59,28.77,5.12,4.77-22.42,12.36-50.49,30.89-61.25,5.83-3.53,12.18-6.36,18.01-2.82,7.77,4.94,9.18,14.12,5.83,24.18-6.36,19.24-27.36,39.37-47.84,46.25-1.94,8.47-3.35,17.83-5.65,32.66l-.18.88c0,1.24-.17,2.83-.53,4.94l-.53,3.53-.53,3.35-.53,3.18c-.18.88-.18,1.59-.35,2.12-.88,6.53-1.76,12-2.65,16.42,11.12-.17,25.95,3,42.9,9.36,6,2.12,11.47,4.41,16.59,6.71.53.18,1.41.53,2.3,1.06.53.18.88.35,1.06.53,1.94.88,2.47,3.35,1.59,5.29-.88,2.12-3.35,2.65-5.47,1.76-.53-.17-1.94-1.06-2.65-1.59-9.89-4.24-25.07-10.06-38.66-13.06-7.59-1.59-14.12-2.3-19.24-2.12-1.24,5.12-3,12.53-6.36,17.48-4.24,6.88-12,8.3-16.06,1.41-3-5.12-1.23-11.65,1.41-16.42,2.82-4.94,7.59-8.12,14.3-9.53.88-4.77,1.94-10.94,3.18-18.53,0-.53.18-1.24.35-2.12l1.06-6.36.35-3.53.53-3c.18-.88.18-1.59.35-2.12v-.88c1.06-7.42,2.12-13.77,3-18.89.53-3.71,1.23-7.06,1.76-10.41-11.48,1.76-22.07-.53-31.6-6.89-1.59-1.41-2.3-3.88-.88-5.65,1.24-1.76,3.53-2.3,5.47-1.06ZM257.67,168.48c-4.94,2.12-9.18,9.53-7.06,12.88.17.35.35.53.53.71.71-.17,1.41-.88,2.3-2.12,1.24-1.94,2.3-4.77,3.35-8.47.35-.88.71-1.94.88-3ZM280.8,82.52c15.36-6.53,32.83-22.6,38.31-39.54,2.65-7.59,1.59-12.71-2.47-15.01-1.59-.88-4.94,0-9.89,2.82-15.01,9.18-21.89,33.89-25.95,51.73Z"/>
    <path class="cls-2" d="M311.36,126.95c-2.82,8.3-3.53,14.83-1.94,19.6,2.12,6.18,8.65,6.53,13.77.71,3-3.71,4.59-8.47,4.41-14.48l-.18-.17c0-2.12,1.77-3.88,3.89-3.88l.17-.18c2.12,0,3.89,1.76,3.89,3.88.17,6.18,1.41,10.77,3.7,13.42,1.59,1.94,3.89,2.65,6.89,2.29,7.24-1.23,24.8-8.86,31.34-19.98,1.23-1.94,3.53-2.47,5.47-1.24,1.94,1.24,2.47,3.53,1.23,5.47-7.77,12.89-26.92,22.11-36.81,23.52-5.83.88-10.41-.71-14.12-4.94-.53-.53-1.06-1.24-1.59-1.94-.71,1.23-1.41,2.3-2.29,3.35-4.24,4.94-9.18,7.24-14.65,6.88-5.83-.18-10.59-4.06-12.53-10.24-2.3-6.36-1.59-14.47,1.94-24.54.71-2.12,3-3.18,5.12-2.47,1.94.71,3,3,2.29,4.94Z"/>
    <path class="cls-2" d="M401.93,126.42c.36-4.06.18-7.06-.35-9.18-.71-2.12-1.23-2.47-3.88-1.24-1.59.88-3.18,2.12-5.12,3.89-8.65,8.47-13.59,21.89-9.53,28.42,3.53,5.65,11.3,5.12,22.42-1.24,9.71-5.47,34-21.19,38.41-26.66,1.24-1.59,3.89-1.94,5.47-.71,1.59,1.41,2.12,4.06.71,5.65-4.94,6.18-30.12,22.78-40.53,28.61-13.42,7.59-26.13,9.71-33.19-1.41-6.88-11.12.17-28.24,10.59-38.31,4.94-4.94,10.94-7.94,16.06-6.35,5.83,2.12,7.76,9.18,6.88,19.24-.18,2.3-2.12,3.88-4.24,3.71-2.29-.18-3.88-2.12-3.71-4.41Z"/>
    <path class="cls-2" d="M451.23,122.54c0,1.59-.35,4.41-.88,8.12-.17,1.59-.35,2.65-.53,3.53-.71,4.76-.53,8.3.35,10.59,1.94,4.94,4.76,5.12,9.71,2.12,4.94-3.53,10.06-10.24,11.47-15.36.53-1.94,1.94-3,3.89-3,.35,0,.71,0,1.06.18,1.94.53,3,1.94,3,3.88,0,.35,0,.71-.18,1.06-.53,1.41-.88,6-1.24,13.59v1.41c2.12-1.41,4.24-2.82,6.53-4.06,4.76-2.82,10.41-6,17.3-9.71l.53-.18c.53-.53,1.59-1.06,3-1.76.53-.35,1.24-.71,2.12-1.06l2.29-1.24c1.41-.88,3-1.76,4.41-2.47s2.47-1.24,3.18-1.76c1.94-.88,4.41-.35,5.47,1.59,1.06,1.94.35,4.24-1.59,5.47-.35.18-.88.36-1.41.71-1.24.71-2.47,1.41-4.06,2.12l-2.3,1.23-2.3,1.24-3.88,2.12-1.06.71-.53.18c-13.59,7.24-21.53,12.18-28.07,16.59-.17,1.94-.17,3.53-.35,5.12-.35,7.06-.88,13.42-1.41,18.89-1.59,17.48-4.41,30.54-8.47,39.19-5.47,11.83-14.12,17.65-25.95,13.42-8.47-3-12.18-12.71-12-21.36.17-28.42,22.06-46.96,40.42-59.67.17-3.35.17-5.12.17-5.47-3.71,4.06-10.06,9.53-17.3,8.3-9.01-1.42-12.36-11.48-10.77-23.66l.53-3.7,1.06-7.24c0-2.12,1.94-3.88,4.06-3.88,2.12.18,3.88,2.12,3.71,4.24ZM469.23,164.2c-6.35,4.77-11.83,9.53-16.24,14.3-10.42,11.3-15.71,22.95-15.89,35.13,0,6.35,2.65,12.36,7.06,13.94,6.88,2.65,11.83-.71,15.89-9.35,3.71-7.94,6.36-20.12,7.95-36.72.53-5.12.88-10.77,1.23-17.3Z"/>
  </g>
</svg>