<?xml version="1.0" encoding="UTF-8"?>
<svg id="Layer_1" data-name="Layer 1" xmlns="http://www.w3.org/2000/svg" viewBox="0 0 792 612">
  <defs>
    <style>
      .cls-1 {
        fill: #e7a3a3;
      }

      .cls-2 {
        fill: #ca4c4c;
      }
    </style>
  </defs>
  <g>
    <path class="cls-1" d="M156.89,440.59c-4.48,0-8.57,1.15-12.26,3.43-3.69,2.29-6.84,5.49-9.46,9.6-2.62,4.11-4.65,9.08-6.09,14.92-1.45,5.84-2.17,12.31-2.17,19.4,0,6.63.77,12.77,2.31,18.42,1.54,5.65,3.73,10.53,6.58,14.64,2.85,4.11,6.28,7.33,10.3,9.67,4.01,2.34,8.5,3.5,13.45,3.5,6.07,0,11.07-1.03,14.99-3.08,3.92-2.05,6.12-4.81,6.58-8.27v-24.1c0-3.17-1.14-5.46-3.43-6.86-2.29-1.4-5.3-2.43-9.04-3.08v-1.4h29.42v1.4c-2.34.37-3.88,1.05-4.62,2.03-.75.98-1.12,2.78-1.12,5.39v40.07h-1.4c-.28-1.87-1.1-3.36-2.45-4.48-1.35-1.12-2.97-1.68-4.83-1.68-1.4,0-2.92.4-4.55,1.19-1.63.79-3.6,1.66-5.88,2.59-2.29.93-4.95,1.8-7.99,2.59-3.04.79-6.61,1.19-10.72,1.19-5.79,0-11.07-1.19-15.83-3.57-4.76-2.38-8.85-5.74-12.26-10.09-3.41-4.34-6.05-9.57-7.91-15.69-1.87-6.12-2.8-12.91-2.8-20.38,0-6.63.89-12.93,2.66-18.91,1.77-5.98,4.46-11.25,8.05-15.83,3.59-4.57,8.08-8.2,13.45-10.86,5.37-2.66,11.65-3.94,18.84-3.85,4.01.09,8.38.84,13.1,2.24,4.71,1.4,8.94,3.27,12.68,5.6l1.4,20.87h-1.4c-3.27-9.43-7.07-16.23-11.42-20.38-4.34-4.15-9.74-6.23-16.18-6.23Z"/>
    <path class="cls-1" d="M200.87,471.69h19.19v13.03c1.31-1.87,2.61-3.66,3.92-5.39,1.31-1.73,2.73-3.27,4.27-4.62,1.54-1.35,3.22-2.43,5.04-3.22,1.82-.79,3.85-1.19,6.09-1.19,3.17,0,5.72.7,7.63,2.1,1.91,1.4,2.87,3.32,2.87,5.74,0,1.68-.51,3.04-1.54,4.06-1.03,1.03-2.38,1.54-4.06,1.54-1.59,0-2.76-.35-3.5-1.05-.75-.7-1.4-1.49-1.96-2.38-.56-.89-1.21-1.68-1.96-2.38-.75-.7-1.92-1.05-3.5-1.05-2.52,0-4.83,1.17-6.93,3.5-2.1,2.34-4.23,4.95-6.37,7.85v39.36c0,2.24.58,3.9,1.75,4.97,1.17,1.08,3.24,1.85,6.23,2.31v1.4h-27.18v-1.4c2.99-.47,5.07-1.26,6.23-2.38,1.17-1.12,1.75-2.8,1.75-5.04v-46.93c0-2.24-.58-3.92-1.75-5.04-1.17-1.12-3.25-1.91-6.23-2.38v-1.4Z"/>
    <path class="cls-1" d="M277.78,470.15c4.2,0,8.01.82,11.42,2.45,3.41,1.64,6.33,3.92,8.76,6.87,2.43,2.94,4.32,6.49,5.67,10.65,1.35,4.16,2.03,8.76,2.03,13.8s-.68,9.64-2.03,13.8c-1.35,4.16-3.25,7.71-5.67,10.65-2.43,2.94-5.35,5.23-8.76,6.87-3.41,1.63-7.21,2.45-11.42,2.45s-8.01-.82-11.42-2.45c-3.41-1.63-6.33-3.92-8.76-6.87-2.43-2.94-4.32-6.49-5.67-10.65-1.35-4.15-2.03-8.76-2.03-13.8s.68-9.64,2.03-13.8c1.35-4.15,3.24-7.7,5.67-10.65,2.43-2.94,5.35-5.23,8.76-6.87,3.41-1.63,7.21-2.45,11.42-2.45ZM277.78,535.57c5.6,0,9.78-2.89,12.54-8.69,2.75-5.79,4.13-13.45,4.13-22.97s-1.38-17.18-4.13-22.97c-2.76-5.79-6.93-8.69-12.54-8.69s-9.78,2.9-12.54,8.69c-2.76,5.79-4.13,13.45-4.13,22.97s1.38,17.18,4.13,22.97c2.75,5.79,6.93,8.69,12.54,8.69Z"/>
    <path class="cls-1" d="M365.48,471.69v55.75c0,2.24.58,3.92,1.75,5.04,1.17,1.12,3.24,1.92,6.23,2.38v1.4h-19.19v-8.13c-3.27,3.46-6.26,5.91-8.97,7.36-2.71,1.45-5.7,2.17-8.97,2.17-5.98,0-10.79-1.68-14.43-5.04-3.64-3.36-5.46-7.84-5.46-13.45v-38.8c0-2.24-.58-3.9-1.75-4.97-1.17-1.07-3.25-1.84-6.23-2.31v-1.4h19.19v46.09c0,4.2,1.24,7.57,3.71,10.09,2.47,2.52,5.77,3.78,9.88,3.78,4.57,0,8.92-2.19,13.03-6.58v-44.69c0-2.24-.58-3.9-1.75-4.97-1.17-1.07-3.25-1.84-6.23-2.31v-1.4h19.19Z"/>
    <path class="cls-1" d="M423.33,527.45v-37.26c0-4.2-1.24-7.57-3.71-10.09-2.48-2.52-5.77-3.78-9.88-3.78-2.43,0-4.88.51-7.35,1.54-2.48,1.03-4.79,2.48-6.93,4.34v45.39c0,2.24.58,3.9,1.75,4.97,1.17,1.08,3.24,1.85,6.23,2.31v1.4h-27.18v-1.4c2.99-.47,5.06-1.26,6.23-2.38,1.17-1.12,1.75-2.8,1.75-5.04v-46.93c0-2.24-.59-3.92-1.75-5.04-1.17-1.12-3.25-1.91-6.23-2.38v-1.4h19.19v7.7c3.83-3.27,7.19-5.6,10.09-7,2.89-1.4,5.93-2.1,9.11-2.1,5.97,0,10.79,1.68,14.43,5.04,3.64,3.36,5.46,7.84,5.46,13.45v38.8c0,2.24.58,3.9,1.75,4.97,1.17,1.08,3.24,1.85,6.23,2.31v1.4h-27.18v-1.4c2.99-.47,5.06-1.26,6.23-2.38,1.17-1.12,1.75-2.8,1.75-5.04Z"/>
    <path class="cls-1" d="M495.48,527.45c0,2.24.58,3.92,1.75,5.04,1.17,1.12,3.24,1.92,6.23,2.38v1.4h-19.19v-8.13c-3.27,3.46-6.26,5.91-8.97,7.36-2.71,1.45-5.7,2.17-8.97,2.17-3.55,0-6.77-.82-9.67-2.45-2.9-1.63-5.39-3.92-7.49-6.87-2.1-2.94-3.71-6.47-4.83-10.58-1.12-4.11-1.68-8.69-1.68-13.73s.68-9.64,2.03-13.8c1.35-4.16,3.27-7.71,5.74-10.65,2.47-2.94,5.46-5.23,8.97-6.87,3.5-1.63,7.4-2.45,11.7-2.45,2.43,0,4.76.4,7,1.19,2.24.79,4.29,1.89,6.16,3.29v-27.18c0-2.24-.58-3.92-1.75-5.04-1.17-1.12-3.25-1.91-6.23-2.38v-1.4h19.19v88.67ZM453.87,504.05c0,4.11.42,7.87,1.26,11.28.84,3.41,2.03,6.33,3.57,8.76,1.54,2.43,3.36,4.3,5.46,5.6,2.1,1.31,4.46,1.96,7.07,1.96,4.57,0,8.92-2.19,13.03-6.58v-40.63c-.93-3.64-2.59-6.56-4.97-8.76-2.38-2.19-5.11-3.29-8.2-3.29-2.62,0-4.97.75-7.07,2.24-2.1,1.5-3.9,3.64-5.39,6.44-1.49,2.8-2.66,6.14-3.5,10.02-.84,3.88-1.26,8.2-1.26,12.96Z"/>
  </g>
  <g>
    <path class="cls-1" d="M316.83,450.92c-2.44,0-4.66-.49-6.66-1.46s-3.71-2.34-5.14-4.11c-1.43-1.77-2.53-3.9-3.31-6.4-.78-2.49-1.17-5.25-1.17-8.26s.39-5.81,1.17-8.28c.78-2.48,1.89-4.59,3.31-6.34,1.43-1.75,3.14-3.11,5.14-4.09s4.22-1.46,6.66-1.46,4.65.49,6.63,1.46c1.98.97,3.69,2.33,5.11,4.09,1.43,1.75,2.53,3.87,3.31,6.34.78,2.48,1.17,5.24,1.17,8.28s-.39,5.76-1.17,8.26c-.78,2.5-1.89,4.63-3.31,6.4-1.43,1.77-3.13,3.14-5.11,4.11-1.98.97-4.19,1.46-6.63,1.46ZM328.49,430.7c0-2.93-.28-5.58-.83-7.94-.55-2.36-1.34-4.39-2.37-6.09-1.03-1.69-2.26-3-3.69-3.91-1.43-.91-3.02-1.37-4.77-1.37s-3.35.47-4.8,1.4c-1.45.93-2.69,2.24-3.71,3.91s-1.82,3.7-2.37,6.08c-.55,2.38-.83,5.02-.83,7.91s.28,5.59.83,7.97c.55,2.38,1.34,4.42,2.37,6.11,1.03,1.7,2.27,3,3.71,3.91,1.45.91,3.05,1.37,4.8,1.37s3.4-.46,4.83-1.37c1.43-.91,2.65-2.21,3.66-3.89,1.01-1.68,1.79-3.7,2.34-6.09.55-2.38.83-5.06.83-8.03Z"/>
    <path class="cls-1" d="M353.4,446.81v-15.2c0-1.71-.51-3.09-1.51-4.11-1.01-1.03-2.35-1.54-4.03-1.54-.99,0-1.99.21-3,.63-1.01.42-1.95,1.01-2.83,1.77v18.51c0,.91.24,1.59.71,2.03.48.44,1.32.75,2.54.94v.57h-11.08v-.57c1.22-.19,2.07-.51,2.54-.97.48-.46.71-1.14.71-2.06v-19.14c0-.91-.24-1.6-.71-2.06-.48-.46-1.32-.78-2.54-.97v-.57h7.83v3.14c1.56-1.33,2.93-2.28,4.11-2.86,1.18-.57,2.42-.86,3.71-.86,2.44,0,4.4.69,5.89,2.06,1.49,1.37,2.23,3.2,2.23,5.49v15.83c0,.91.24,1.59.71,2.03.48.44,1.32.75,2.54.94v.57h-11.08v-.57c1.22-.19,2.07-.51,2.54-.97s.71-1.14.71-2.06Z"/>
    <path class="cls-1" d="M374.37,420.3h-.57l1.94-9.66h28.34l1.94,9.66h-.57c-.8-2.86-2.15-5.04-4.06-6.54s-4.28-2.26-7.14-2.26h-2.06v35.31c0,.91.24,1.6.71,2.06.48.46,1.32.78,2.54.97v.57h-11.08v-.57c1.22-.19,2.07-.51,2.54-.97.48-.46.71-1.14.71-2.06v-35.31h-2.06c-2.86,0-5.24.75-7.14,2.26-1.91,1.51-3.26,3.68-4.06,6.54Z"/>
    <path class="cls-1" d="M426.36,446.81v-15.2c0-1.71-.5-3.09-1.51-4.11-1.01-1.03-2.35-1.54-4.03-1.54-.99,0-1.99.21-3,.63-1.01.42-1.95,1.01-2.83,1.77v18.51c0,.91.24,1.59.71,2.03.48.44,1.32.75,2.54.94v.57h-11.08v-.57c1.22-.19,2.07-.51,2.54-.97.48-.46.71-1.14.71-2.06v-32.57c0-.91-.24-1.6-.71-2.06-.48-.46-1.32-.78-2.54-.97v-.57h7.83v16.57c1.56-1.33,2.93-2.28,4.11-2.86,1.18-.57,2.42-.86,3.71-.86,2.44,0,4.4.69,5.89,2.06,1.49,1.37,2.23,3.2,2.23,5.49v15.83c0,.91.24,1.59.71,2.03s1.32.75,2.54.94v.57h-11.08v-.57c1.22-.19,2.07-.51,2.54-.97.48-.46.71-1.14.71-2.06Z"/>
    <path class="cls-1" d="M438.82,434.01c-.04.34-.06.69-.06,1.03v1.09c0,1.83.21,3.48.63,4.94s1.02,2.73,1.8,3.8c.78,1.07,1.72,1.89,2.8,2.46,1.09.57,2.28.86,3.57.86,1.45,0,2.83-.32,4.14-.94,1.31-.63,2.29-1.46,2.94-2.49l.69.51c-1.14,1.83-2.53,3.24-4.17,4.23-1.64.99-3.39,1.48-5.26,1.48-1.75,0-3.34-.33-4.77-1-1.43-.67-2.65-1.6-3.66-2.8s-1.8-2.65-2.37-4.34c-.57-1.69-.86-3.57-.86-5.63s.26-3.93.77-5.63,1.24-3.14,2.17-4.34c.93-1.2,2.07-2.13,3.4-2.8,1.33-.67,2.82-1,4.46-1s2.97.26,4.23.77c1.26.51,2.33,1.23,3.23,2.14.89.91,1.59,2.02,2.09,3.31.49,1.3.74,2.74.74,4.34h-16.51ZM450.93,433.15c-.08-2.66-.65-4.81-1.71-6.43-1.07-1.62-2.46-2.43-4.17-2.43-1.6,0-2.94.79-4.03,2.37-1.09,1.58-1.78,3.74-2.08,6.49h12Z"/>
  </g>
  <g>
    <path class="cls-2" d="M272.31,423.01c-.45-.45-1.33-.88-2.65-1.33-2.22-1.32-4.42-2.21-5.76-2.65-12.84-5.76-26.56-11.5-41.6-16.81-42.49-15.94-79.67-23.9-107.56-23.46,2.22-11.07,4.42-24.79,6.64-41.16.44-1.32.44-3.09.88-5.31l1.33-7.96,1.32-8.41,1.33-8.85c.88-5.31,1.32-9.3,1.32-12.4l.45-2.21c5.75-37.18,9.3-60.64,14.16-81.89,51.34-17.26,104.01-67.72,119.95-115.96,8.41-25.22,4.87-48.24-14.61-60.63-14.61-8.86-30.54-1.77-45.15,7.08-46.47,26.99-65.5,97.37-77.45,153.58-26.99,6.19-50.9,1.77-72.14-12.84-4.87-3.1-10.62-1.77-13.72,2.65-3.54,4.42-1.77,10.62,2.22,14.16,23.89,15.94,50.45,21.69,79.22,17.27-1.33,8.4-3.1,16.81-4.42,26.11-2.22,12.84-4.87,28.76-7.53,47.36v2.22c-.44,1.32-.44,3.09-.88,5.31l-1.33,7.53-.88,8.85-2.65,15.94c-.44,2.21-.88,3.98-.88,5.31-3.09,19.03-5.75,34.52-7.96,46.47-16.82,3.54-28.77,11.5-35.85,23.9-6.63,11.95-11.07,28.33-3.54,41.16,10.18,17.26,29.66,13.72,40.28-3.54,8.41-12.4,12.84-30.99,15.94-43.82,12.84-.44,29.21,1.33,48.24,5.32,34.07,7.52,72.14,22.12,96.93,32.75,1.77,1.32,5.31,3.54,6.63,3.98,5.32,2.22,11.51.88,13.72-4.42,2.22-4.86.88-11.07-3.98-13.27ZM212.12,57.87c12.39-7.08,20.8-9.29,24.79-7.08,10.17,5.76,12.83,18.59,6.19,37.62-13.72,42.49-57.54,82.76-96.04,99.15,10.18-44.71,27.44-106.67,65.06-129.69ZM86.86,410.61c-2.65,9.3-5.31,16.38-8.41,21.25-2.22,3.1-3.99,4.87-5.76,5.31-.44-.44-.88-.88-1.32-1.77-5.31-8.41,5.31-26.99,17.7-32.3-.44,2.65-1.32,5.31-2.21,7.52Z"/>
    <path class="cls-2" d="M753.61,301.63c-2.65-4.87-8.85-6.2-13.72-3.99-1.77,1.32-4.42,2.65-7.96,4.42-3.54,1.77-7.53,3.99-11.07,6.19l-5.75,3.1c-2.22.88-3.99,1.77-5.32,2.65-3.54,1.77-6.19,3.1-7.52,4.42l-1.33.45c-17.26,9.29-31.43,17.26-43.37,24.34-5.76,3.1-11.07,6.64-16.38,10.18v-3.54c.89-19.03,1.78-30.54,3.1-34.08.45-.88.45-1.77.45-2.65,0-4.87-2.65-8.41-7.53-9.73-.88-.45-1.77-.45-2.65-.45-4.87,0-8.41,2.65-9.74,7.53-3.54,12.84-16.38,29.65-28.76,38.51-12.4,7.52-19.48,7.08-24.34-5.32-2.22-5.75-2.66-14.61-.88-26.55.44-2.22.88-4.87,1.32-8.86,1.33-9.3,2.22-16.38,2.22-20.35.44-5.32-3.99-10.18-9.3-10.63-3.46,0-6.72,1.88-8.58,4.66-.19.2-.38.41-.55.63-11.06,13.72-71.97,53.13-96.31,66.85-27.89,15.94-47.36,17.26-56.21,3.1-5.88-9.46-4.22-24.68,2.41-39.94.59-.92,1.01-1.88,1.29-2.84,4.84-10.2,11.82-20.27,20.21-28.48,4.87-4.42,8.85-7.53,12.84-9.74,6.64-3.09,7.96-2.21,9.73,3.1,1.33,5.31,1.78,12.84.88,23.02-.44,5.76,3.55,10.62,9.3,11.07,5.32.44,10.18-3.54,10.63-9.3,2.21-25.22-2.65-42.93-17.26-48.24-12.84-3.99-27.89,3.54-40.28,15.93-10.8,10.44-20.16,23.9-26.2,38.08-17.74,26.13-59.08,43.93-76.52,46.9-7.53.88-13.28-.88-17.27-5.75-5.75-6.64-8.85-18.15-9.29-33.64,0-5.31-4.43-9.73-9.74-9.73l-.44.45c-5.31,0-9.74,4.42-9.74,9.73l.45.44c.44,15.05-3.54,27-11.07,36.3-12.84,14.61-29.21,13.72-34.52-1.77-3.99-11.95-2.22-28.33,4.86-49.13,1.78-4.86-.88-10.62-5.75-12.39-5.31-1.77-11.07.88-12.84,6.19-8.86,25.23-10.63,45.59-4.87,61.52,4.87,15.49,16.82,25.22,31.43,25.67,13.72.88,26.11-4.87,36.74-17.26,2.21-2.65,3.98-5.32,5.75-8.41,1.33,1.77,2.65,3.54,3.99,4.87,9.3,10.62,20.8,14.61,35.41,12.39,16.8-2.4,44.29-13.8,66.32-30.96.44,8.09,2.56,15.77,6.76,22.55,17.7,27.89,49.56,22.57,83.21,3.54,18.83-10.53,56.9-35.12,81.32-53.82l-.23,1.59c-3.98,30.54,4.42,55.77,27,59.32,18.15,3.09,34.07-10.63,43.37-20.81,0,.88,0,5.32-.44,13.72-46.03,31.87-100.92,78.35-101.35,149.6-.45,21.68,8.85,46.02,30.1,53.55,29.65,10.62,51.34-3.99,65.06-33.64,10.17-21.68,17.26-54.44,21.24-98.26,1.33-13.72,2.65-29.65,3.54-47.36.45-3.99.45-7.96.88-12.84,16.38-11.07,36.3-23.45,70.37-41.6l1.33-.45,2.65-1.77,9.73-5.31,5.76-3.1,5.76-3.09c3.98-1.77,7.08-3.54,10.18-5.31,1.32-.88,2.65-1.33,3.54-1.78,4.86-3.09,6.64-8.85,3.98-13.71ZM616.41,435.73c-3.99,41.6-10.63,72.14-19.92,92.06-10.17,21.68-22.57,30.1-39.83,23.45-11.07-3.98-17.71-19.03-17.71-34.96.45-30.54,13.72-59.75,39.84-88.08,11.07-11.95,24.79-23.9,40.72-35.85-.88,16.38-1.77,30.54-3.09,43.38Z"/>
  </g>
</svg>